<?xml version="1.0" encoding="UTF-8"?>
<svg width="512" height="512" version="1.1" viewBox="0 0 135.47 135.47" xmlns="http://www.w3.org/2000/svg">
 <g transform="matrix(.99999 0 0 .99999 812.74 541.86)">
  <path d="m-745-532.03a3.1753 3.1753 0 0 0-3.17 3.15v54.82h-22.62a3.1753 3.1753 0 0 0-2.73 1.59l-30.08 51.57a3.1753 3.1753 0 0 0 2.75 4.76h111.71a3.1753 3.1753 0 0 0 2.72-4.76l-30.05-51.57a3.1753 3.1753 0 0 0-2.76-1.59h-22.59v-25.85h39.79a3.1753 3.1753 0 0 0 2.25-5.42l-10.66-10.64 10.66-10.66a3.1753 3.1753 0 0 0-2.25-5.4zm3.18 6.32h32.12l-7.46 7.49a3.1753 3.1753 0 0 0 0 4.47l7.46 7.49h-32.12zm-27.15 58.03h47.92l8.81 15.11h-44.93a3.1751 3.1751 0 0 0-3.17 3.17 3.1751 3.1751 0 0 0 3.17 3.18h48.1a3.1751 3.1751 0 0 0 0.53-0.06l13.87 23.79h-100.65l4.95-8.49a3.1751 3.1751 0 0 0 0.37 0.02h60.88a3.1751 3.1751 0 0 0 3.17-3.15 3.1751 3.1751 0 0 0-3.17-3.17h-57.58z" style="-inkscape-stroke:none;color:#000000;stroke-linecap:round;stroke-linejoin:round"/>
 </g>
</svg>
