<?xml version="1.0" encoding="iso-8859-1"?>
<!-- Generator: Adobe Illustrator 18.1.1, SVG Export Plug-In . SVG Version: 6.00 Build 0)  -->
<svg version="1.1" id="Capa_1" xmlns="http://www.w3.org/2000/svg" xmlns:xlink="http://www.w3.org/1999/xlink" x="0px" y="0px"
	 viewBox="0 0 272.972 272.972" style="enable-background:new 0 0 272.972 272.972;" xml:space="preserve">
<g>
	<path style="fill:#010002;" d="M256.205,16.758c-10.8-10.8-25.174-16.749-40.479-16.749c-15.299,0-29.679,5.949-40.467,16.743
		l-40.837,40.837c-5.46,5.454-6.587,13.563-3.509,20.186c-12.411,1.635-23.885,7.208-32.883,16.206L16.767,175.25
		C5.955,186.056,0,200.43,0,215.717c0,15.293,5.949,29.667,16.761,40.473c10.812,10.818,25.186,16.773,40.479,16.773
		c15.287,0,29.661-5.955,40.467-16.767l40.843-40.843c3.377-3.377,5.245-7.876,5.245-12.656c0-2.661-0.632-5.209-1.73-7.554
		c12.417-1.629,23.897-7.196,32.877-16.182l81.263-81.269c10.812-10.812,16.767-25.186,16.767-40.461
		C272.978,41.95,267.023,27.57,256.205,16.758z M130.12,206.922l-40.843,40.843c-8.556,8.556-19.929,13.27-32.03,13.27l0,0
		c-12.101,0-23.48-4.714-32.036-13.276c-8.556-8.556-13.27-19.935-13.27-32.036c0-12.095,4.714-23.48,13.27-32.03l81.263-81.263
		c8.557-8.557,19.935-13.27,32.036-13.27s23.486,4.714,32.036,13.27c2.333,2.333,2.333,6.11,0,8.437
		c-2.333,2.333-6.104,2.333-8.437,0c-6.307-6.301-14.684-9.774-23.599-9.774c-8.92,0-17.298,3.473-23.605,9.774l-81.263,81.257
		c-6.301,6.307-9.774,14.684-9.774,23.599c0,8.909,3.473,17.286,9.774,23.593c6.307,6.307,14.684,9.78,23.599,9.78l0,0
		c8.915,0,17.292-3.473,23.593-9.774l40.843-40.843c2.333-2.333,6.104-2.333,8.437,0
		C132.447,200.812,132.447,204.589,130.12,206.922z M94.002,178.961c5.281,5.281,11.427,9.38,18.109,12.214l-39.71,39.71
		c-4.052,4.046-9.434,6.277-15.162,6.277s-11.11-2.232-15.162-6.283c-4.052-4.052-6.277-9.434-6.277-15.156
		c0-5.728,2.232-11.11,6.277-15.162l81.263-81.257c4.052-4.052,9.44-6.283,15.168-6.283c5.722,0,11.11,2.232,15.162,6.277
		c3.371,3.383,7.87,5.245,12.65,5.245c4.779,0,9.278-1.862,12.65-5.239c3.389-3.377,5.251-7.876,5.251-12.662
		c0-4.779-1.868-9.278-5.245-12.656c-5.281-5.281-11.421-9.386-18.098-12.22l39.692-39.692c4.04-4.04,9.422-6.265,15.162-6.265
		c5.734,0,11.116,2.226,15.162,6.265c4.052,4.046,6.277,9.428,6.277,15.156s-2.226,11.11-6.277,15.162l-81.263,81.269
		c-4.04,4.04-9.422,6.259-15.156,6.259c-5.734,0-11.116-2.226-15.162-6.265c-3.377-3.377-7.876-5.245-12.656-5.245
		s-9.278,1.868-12.656,5.245c-3.383,3.377-5.245,7.876-5.245,12.656C88.757,171.091,90.619,175.584,94.002,178.961z M247.768,89.261
		l-81.263,81.269c-8.825,8.825-20.431,13.246-32.03,13.246s-23.205-4.415-32.036-13.252c-2.333-2.333-2.333-6.104,0-8.437
		c2.333-2.333,6.104-2.333,8.437,0c13.014,13.02,34.184,13.014,47.192,0.006l81.263-81.269c6.307-6.301,9.774-14.684,9.774-23.599
		s-3.467-17.292-9.774-23.599c-13.026-13.02-34.184-13.008-47.198,0l-40.837,40.837c-2.333,2.333-6.104,2.333-8.437,0
		c-2.333-2.333-2.333-6.104,0-8.437l40.837-40.837c17.656-17.662,46.404-17.662,64.072,0c8.562,8.556,13.276,19.935,13.27,32.036
		C261.039,69.332,256.325,80.705,247.768,89.261z"/>
</g>
<g>
</g>
<g>
</g>
<g>
</g>
<g>
</g>
<g>
</g>
<g>
</g>
<g>
</g>
<g>
</g>
<g>
</g>
<g>
</g>
<g>
</g>
<g>
</g>
<g>
</g>
<g>
</g>
<g>
</g>
</svg>
