<svg width="26" height="26" viewBox="0 0 26 26" fill="none" xmlns="http://www.w3.org/2000/svg">
<path fill-rule="evenodd" clip-rule="evenodd" d="M4.27724 6.5H21.7222C22.2877 6.5 22.7502 6.96258 22.7502 7.52808V7.63858C22.7502 8.20408 22.2877 8.66667 21.7222 8.66667H4.27724C3.71174 8.66667 3.25024 8.20408 3.25024 7.63858V7.52808C3.25024 6.96258 3.71174 6.5 4.27724 6.5ZM21.7222 11.9167H4.27726C3.71176 11.9167 3.25026 12.3792 3.25026 12.9447V13.0552C3.25026 13.6207 3.71176 14.0833 4.27726 14.0833H21.7222C22.2877 14.0833 22.7503 13.6207 22.7503 13.0552V12.9447C22.7503 12.3792 22.2877 11.9167 21.7222 11.9167ZM21.7222 17.3333H4.27726C3.71176 17.3333 3.25026 17.7959 3.25026 18.3614V18.4719C3.25026 19.0374 3.71176 19.5 4.27726 19.5H21.7222C22.2877 19.5 22.7503 19.0374 22.7503 18.4719V18.3614C22.7503 17.7959 22.2877 17.3333 21.7222 17.3333Z" fill="#EA2020"/>
<mask id="mask0" mask-type="alpha" maskUnits="userSpaceOnUse" x="3" y="6" width="20" height="14">
<path fill-rule="evenodd" clip-rule="evenodd" d="M4.27724 6.5H21.7222C22.2877 6.5 22.7502 6.96258 22.7502 7.52808V7.63858C22.7502 8.20408 22.2877 8.66667 21.7222 8.66667H4.27724C3.71174 8.66667 3.25024 8.20408 3.25024 7.63858V7.52808C3.25024 6.96258 3.71174 6.5 4.27724 6.5ZM21.7222 11.9167H4.27726C3.71176 11.9167 3.25026 12.3792 3.25026 12.9447V13.0552C3.25026 13.6207 3.71176 14.0833 4.27726 14.0833H21.7222C22.2877 14.0833 22.7503 13.6207 22.7503 13.0552V12.9447C22.7503 12.3792 22.2877 11.9167 21.7222 11.9167ZM21.7222 17.3333H4.27726C3.71176 17.3333 3.25026 17.7959 3.25026 18.3614V18.4719C3.25026 19.0374 3.71176 19.5 4.27726 19.5H21.7222C22.2877 19.5 22.7503 19.0374 22.7503 18.4719V18.3614C22.7503 17.7959 22.2877 17.3333 21.7222 17.3333Z" fill="white"/>
</mask>
<g mask="url(#mask0)">
</g>
</svg>
